<svg class="icon-Prepare-for-a-career-icon" height="32px" viewBox="0 0 42 32" width="42px">
<title>Prepare-for-a-career-icon</title>
<path class="path1" d="M23.14 10.627h-17.344c-0.488 0-0.883 0.387-0.883 0.864s0.396 0.864 0.883 0.864h16.119c0.338-0.624 0.752-1.202 1.225-1.728z"/>
<path class="path2" d="M5.797 16.124h15.068c0.031-0.593 0.118-1.171 0.26-1.728h-15.327c-0.488 0-0.883 0.387-0.883 0.864s0.395 0.864 0.883 0.864z"/>
<path class="path3" d="M5.797 19.892h15.691c-0.222-0.552-0.389-1.13-0.498-1.728h-15.194c-0.488 0-0.883 0.387-0.883 0.864s0.395 0.864 0.883 0.864z"/>
<path class="path4" d="M2.945 23.989c-0.479 0-0.883-0.396-0.883-0.864v-20.244c0-0.468 0.405-0.864 0.883-0.864h28.968c0.479 0 0.883 0.396 0.883 0.864v5.054c0.731 0.219 1.419 0.531 2.061 0.911v-5.965c0-1.584-1.325-2.88-2.945-2.88h-28.968c-1.62 0-2.945 1.296-2.945 2.88v20.244c0 1.584 1.325 2.88 2.945 2.88h15.806l1.051-2.016h-16.858z"/>
<path class="path5" d="M24.896 6.057c0-0.478-0.395-0.864-0.883-0.864h-13.209c-0.488 0-0.883 0.387-0.883 0.864s0.396 0.864 0.883 0.864h13.209c0.488 0 0.883-0.387 0.883-0.864z"/>
<path class="path6" d="M36.563 26.13c-0.239-0.105-0.513-0.099-0.749 0.013s-0.407 0.321-0.469 0.57l-0.435 1.735-2.431-4.913c1.213-0.4 2.285-1.094 3.132-1.997l2.634 5.325-1.683-0.733zM30.087 22.195c-3.163 0-5.737-2.517-5.737-5.612s2.573-5.612 5.737-5.612c3.164 0 5.738 2.517 5.738 5.612s-2.574 5.612-5.738 5.612v0zM25.499 28.448l-0.434-1.735c-0.062-0.249-0.234-0.457-0.469-0.57-0.122-0.059-0.256-0.088-0.389-0.088-0.123 0-0.245 0.025-0.36 0.075l-1.683 0.733 2.553-5.159c0.87 0.873 1.957 1.535 3.18 1.899l-2.398 4.845zM40.831 28.121l-4.062-8.209c0.522-1 0.822-2.129 0.822-3.329 0-4.054-3.359-7.34-7.505-7.34-4.143 0-7.503 3.286-7.503 7.34 0 1.292 0.344 2.505 0.944 3.559l-4.006 8.096c-0.161 0.327-0.097 0.717 0.161 0.978s0.656 0.336 0.994 0.188l2.924-1.274 0.767 3.061c0.089 0.354 0.395 0.615 0.766 0.653 0.031 0.003 0.062 0.005 0.093 0.005 0.336 0 0.646-0.187 0.795-0.488l3.689-7.457c0.126 0.006 0.25 0.018 0.377 0.018 0.205 0 0.406-0.014 0.607-0.030l3.695 7.469c0.149 0.301 0.459 0.488 0.795 0.488 0.031 0 0.062-0.002 0.093-0.005 0.37-0.038 0.677-0.3 0.766-0.653l0.767-3.061 2.924 1.274c0.116 0.050 0.238 0.075 0.359 0.075h0.012c0.488 0 0.883-0.387 0.883-0.864 0-0.183-0.058-0.353-0.158-0.493v0z"/>
<path class="path7" d="M30.087 18.738c-1.215 0-2.203-0.967-2.203-2.155s0.988-2.155 2.203-2.155c1.215 0 2.204 0.967 2.204 2.155s-0.989 2.155-2.204 2.155zM30.087 12.7c-2.192 0-3.97 1.739-3.97 3.883s1.778 3.883 3.97 3.883c2.193 0 3.971-1.739 3.971-3.883s-1.778-3.883-3.971-3.883z"/>
</svg>