<svg viewBox="0 0 38 32" width="38px">
<title>academic-support-icon</title>
<path class="path1" d="M12.978 14.131c-1.394 0-2.525-1.163-2.525-2.591s1.131-2.592 2.525-2.592c1.391 0 2.523 1.163 2.523 2.592s-1.132 2.591-2.523 2.591v0zM12.978 7.111c-2.384 0-4.308 1.983-4.308 4.429s1.925 4.429 4.308 4.429c2.385 0 4.316-1.983 4.316-4.429s-1.93-4.429-4.316-4.429v0z"/>
<path class="path2" d="M0.003 31.883h37.486v-2.144h-37.486z"/>
<path class="path3" d="M35.4 22.887c0 1.182-0.938 2.144-2.091 2.144h-13.141c0.001-0.040 0.006-0.081 0.006-0.122v-2.829c0-2.358-1.883-4.288-4.182-4.288h-5.845c-2.289 0-4.161 1.929-4.161 4.288v2.829c0 0.041 0.004 0.081 0.005 0.122h-1.828c-1.147 0-2.082-0.962-2.082-2.144v-18.599c0-1.182 0.934-2.144 2.082-2.144h29.146c1.153 0 2.091 0.962 2.091 2.144v18.599zM7.769 24.909v-2.829c0-1.351 1.067-2.45 2.378-2.45h5.845c1.319 0 2.39 1.099 2.39 2.45v2.829c0 0.042-0.008 0.081-0.011 0.122h-10.591c-0.001-0.041-0.010-0.080-0.010-0.122v0zM33.309-0h-29.146c-2.289 0-4.162 1.929-4.162 4.288v18.599c0 2.358 1.873 4.288 4.162 4.288h29.146c2.3 0 4.182-1.929 4.182-4.288v-18.599c0-2.358-1.882-4.288-4.182-4.288v0z"/>
<path class="path4" d="M30.252 4.239h-8.515c-1.482 0-2.689 1.236-2.689 2.756v5.047c0 1.477 1.142 2.678 2.568 2.744l-1.078 1.275c-0.324 0.383-0.283 0.964 0.091 1.296 0.17 0.151 0.378 0.225 0.586 0.225 0.251 0 0.501-0.108 0.678-0.317l2.042-2.415c0.014-0.018 0.025-0.034 0.038-0.051 0.474-0.622 0.446-1.013 0.443-1.030v-0.003c0.010-0.823-0.853-0.804-0.853-0.804h-1.826c-0.494 0-0.896-0.412-0.896-0.919v-5.047c0-0.507 0.402-0.919 0.896-0.919h8.515c0.494 0 0.896 0.412 0.896 0.919v5.047c0 0.507-0.402 0.919-0.896 0.919h-4.464c0.237 0.206 0.494 0.556 0.319 1.040 0 0-0.088 0.217-0.498 0.797h4.642c1.482 0 2.689-1.236 2.689-2.756v-5.047c0-1.52-1.206-2.756-2.689-2.756z"/>
</svg>