<?xml version="1.0" encoding="UTF-8"?>
<svg width="12px" height="12px" viewBox="0 0 12 12" version="1.1" xmlns="http://www.w3.org/2000/svg" xmlns:xlink="http://www.w3.org/1999/xlink">
    <!-- Generator: Sketch 44.1 (41455) - http://www.bohemiancoding.com/sketch -->
    <title>info icon</title>
    <desc>Created with Sketch.</desc>
    <defs></defs>
    <g id="Page-1" stroke="none" stroke-width="1" fill="none" fill-rule="evenodd" >
        <g id="LUO_homepage" transform="translate(-352.000000, -273.000000)" fill="#FFFFFF">
            <path d="M357.963071,277.422996 C358.617828,277.422996 358.977453,276.998801 358.977453,276.49161 C358.977453,276.067341 358.599326,275.550936 357.963071,275.550936 C357.317528,275.550936 356.967116,276.067341 356.967116,276.49161 C356.967116,276.934232 357.382097,277.422996 357.963071,277.422996 M358.848315,277.837978 L356.708914,277.837978 L356.708914,279.036779 L357.09618,279.036779 L357.09618,281.240824 L356.708914,281.240824 L356.708914,282.448914 L359.291011,282.448914 L359.291011,281.240824 L358.848315,281.240824 L358.848315,277.837978 M357.999775,283.861124 C355.315131,283.861124 353.138652,281.684719 353.138652,278.999775 C353.138652,276.315131 355.315131,274.138577 357.999775,274.138577 C360.684869,274.138577 362.861348,276.315131 362.861348,278.999775 C362.861348,281.684719 360.684869,283.861124 357.999775,283.861124 Z M357.999775,273 C354.686217,273 352,275.686067 352,278.999775 C352,282.313408 354.686217,284.99985 357.999775,284.99985 C361.313633,284.99985 364,282.313408 364,278.999775 C364,275.686067 361.313633,273 357.999775,273 L357.999775,273 Z" id="info-icon"></path>
        </g>
    </g>
</svg>