<?xml version="1.0" encoding="UTF-8"?>
<svg width="16px" height="16px" viewBox="0 0 16 16" version="1.1" xmlns="http://www.w3.org/2000/svg" xmlns:xlink="http://www.w3.org/1999/xlink">
    <!-- Generator: Sketch 44.1 (41455) - http://www.bohemiancoding.com/sketch -->
    <title>Checkmark</title>
    <desc>Created with Sketch.</desc>
    <defs></defs>
    <g id="Page-1" stroke="none" stroke-width="1" fill="none" fill-rule="evenodd">
        <g id="LUO_homepage" transform="translate(-132.000000, -270.000000)" fill="#3B99FC">
            <path d="M132.331642,280.761063 L136.122229,285.038747 C136.122229,285.038747 137.873132,287.200462 139.171347,285.040403 C139.847391,283.916098 141.464609,281.151508 142.871466,278.490968 C146.255669,272.090208 148,270.199281 148,270.199281 C146.636809,269.362973 143.936417,271.218841 141.849185,274.641726 C140.843782,276.290294 138.704171,279.849241 137.949061,281.105922 C137.778183,281.390392 137.564934,281.436298 137.383052,281.240595 C136.815948,280.631413 135.583803,279.294677 135.043137,278.609021 C134.927874,278.462911 134.74435,278.256466 134.655625,278.150117 C134.427239,277.876656 133.999148,277.828826 133.681589,278.056541 C133.506031,278.182663 133.337045,278.350203 133.175727,278.509031 C132.809872,278.869495 132.431272,279.237655 132.184116,279.58059 C131.922571,279.943192 131.912513,280.363884 132.331642,280.761063" id="checkmark"></path>
        </g>
    </g>
</svg>
