<svg width="268px" height="43px" viewBox="0 0 470.03 64.78">
    <title>Liberty Logo</title>
    <rect class="cls-1" x="327.61" y="0.59" width="1.71" height="62.56"></rect>
    <path class="cls-1" d="M382.77,58.59c4.72,0,8.25,3,8.25,7.87A8.24,8.24,0,0,1,382.64,75c-5.75,0-8.15-4.47-8.15-8.25A8.13,8.13,0,0,1,382.77,58.59Zm.44,15.66c1.89,0,5.79-1.09,5.79-7.2,0-5-3.07-7.75-6.38-7.75-3.51,0-6.13,2.31-6.13,6.91C376.49,71.1,379.43,74.25,383.21,74.25Z" transform="translate(-32.51 -48.26)"></path>
    <path class="cls-1" d="M396.67,71.9c0,1.72.25,2.27.82,2.44a4.6,4.6,0,0,0,1.05.13c.1,0,.17,0,.17.13s-.13.17-.38.17c-1.2,0-2-.06-2.22-.06s-1.07.06-2,.06c-.21,0-.34,0-.34-.17s.06-.12.17-.12a3,3,0,0,0,.86-.13c.52-.15.63-.76.63-2.67l0-12c0-.82.06-1,.23-1s.53.46.73.67,3.44,3.74,6.68,7.2c2.08,2.23,4.37,4.79,5,5.48l-.23-10.67c0-1.37-.17-1.83-.82-2a5.58,5.58,0,0,0-1-.1c-.15,0-.17-.06-.17-.15s.17-.15.42-.15c.94,0,2,.06,2.18.06s.92-.06,1.78-.06c.23,0,.38,0,.38.15s-.08.15-.23.15a1.87,1.87,0,0,0-.5.06c-.69.15-.78.61-.78,1.87l0,12.3c0,1.39,0,1.49-.19,1.49s-.42-.23-1.53-1.34c-.23-.21-3.25-3.3-5.48-5.69-2.44-2.62-4.81-5.27-5.48-6Z" transform="translate(-32.51 -48.26)"></path>
    <path class="cls-1" d="M417.76,68.71c0,3.09.08,4.43.46,4.81s.88.48,2.52.48c1.11,0,2,0,2.54-.63a2.93,2.93,0,0,0,.55-1.26c0-.17.06-.27.19-.27s.13.08.13.31a13.4,13.4,0,0,1-.32,2.1c-.15.48-.21.57-1.32.57-1.51,0-2.6,0-3.48-.06s-1.53-.06-2.14-.06c-.08,0-.44,0-.86,0s-.88,0-1.2,0-.34,0-.34-.17,0-.12.17-.12a3.31,3.31,0,0,0,.63-.08c.42-.08.53-.55.61-1.16.11-.88.11-2.54.11-4.56V65c0-3.28,0-3.86,0-4.54s-.21-1.05-.9-1.2a3.93,3.93,0,0,0-.71-.06c-.08,0-.17,0-.17-.13s.1-.17.34-.17c.94,0,2.27.06,2.37.06s1.64-.06,2.27-.06c.23,0,.34,0,.34.17s-.08.13-.17.13a4.92,4.92,0,0,0-.69.06c-.61.11-.78.46-.82,1.2s0,1.26,0,4.54Z" transform="translate(-32.51 -48.26)"></path>
    <path class="cls-1" d="M430.19,68.67c0,2,0,3.67.11,4.56.06.61.19,1.07.82,1.16a9.44,9.44,0,0,0,.95.08c.13,0,.17.06.17.13s-.11.17-.34.17c-1.16,0-2.48-.06-2.58-.06s-1.43.06-2.06.06c-.23,0-.34,0-.34-.17s0-.12.17-.12a3.31,3.31,0,0,0,.63-.08c.42-.08.52-.55.61-1.16.11-.88.11-2.54.11-4.56V65c0-3.28,0-3.86,0-4.54s-.25-1.07-.71-1.18a2.73,2.73,0,0,0-.65-.08c-.08,0-.17,0-.17-.13s.1-.17.34-.17c.69,0,2,.06,2.12.06s1.43-.06,2.06-.06c.23,0,.34,0,.34.17s-.08.13-.17.13a3.12,3.12,0,0,0-.53.06c-.57.11-.73.46-.78,1.2s0,1.26,0,4.54Z" transform="translate(-32.51 -48.26)"></path>
    <path class="cls-1" d="M438.23,71.9c0,1.72.25,2.27.82,2.44a4.6,4.6,0,0,0,1.05.13c.1,0,.17,0,.17.13s-.13.17-.38.17c-1.2,0-2-.06-2.22-.06s-1.07.06-2,.06c-.21,0-.34,0-.34-.17s.06-.12.17-.12a3,3,0,0,0,.86-.13c.52-.15.63-.76.63-2.67l0-12c0-.82.06-1,.23-1s.53.46.73.67,3.44,3.74,6.68,7.2c2.08,2.23,4.37,4.79,5,5.48l-.23-10.67c0-1.37-.17-1.83-.82-2a5.58,5.58,0,0,0-1-.1c-.15,0-.17-.06-.17-.15s.17-.15.42-.15c.94,0,2,.06,2.18.06s.92-.06,1.78-.06c.23,0,.38,0,.38.15s-.08.15-.23.15a1.87,1.87,0,0,0-.5.06c-.69.15-.78.61-.78,1.87l0,12.3c0,1.39,0,1.49-.19,1.49s-.42-.23-1.53-1.34c-.23-.21-3.25-3.3-5.48-5.69-2.44-2.62-4.81-5.27-5.48-6Z" transform="translate(-32.51 -48.26)"></path>
    <path class="cls-1" d="M457.55,65c0-3.28,0-3.86,0-4.54s-.21-1.05-.9-1.2a3.93,3.93,0,0,0-.71-.06c-.08,0-.17,0-.17-.13s.1-.17.34-.17c.48,0,1,0,1.51,0l.86,0c.15,0,4.33,0,4.81,0a5.64,5.64,0,0,0,.9-.11c.11,0,.19-.11.29-.11s.08.08.08.19-.11.4-.17,1c0,.21-.06,1.13-.11,1.39s-.06.23-.15.23-.17-.11-.17-.27a2.25,2.25,0,0,0-.13-.76c-.15-.34-.36-.59-1.49-.71-.36,0-2.65-.06-2.88-.06s-.12.06-.12.21v5.79c0,.15,0,.21.13.21.27,0,2.86,0,3.34,0s.8-.08,1-.29.23-.27.31-.27.11,0,.11.17-.11.48-.17,1.18c0,.42-.08,1.2-.08,1.34s0,.4-.15.4-.15-.08-.15-.19a2.14,2.14,0,0,0-.08-.69c-.08-.29-.27-.65-1.09-.74-.57-.06-2.64-.1-3-.1a.13.13,0,0,0-.15.15v1.85c0,.71,0,3.15,0,3.59.06,1.45.38,1.72,2.44,1.72a6,6,0,0,0,2-.23c.54-.23.8-.65.94-1.51,0-.23.08-.31.19-.31s.13.17.13.31a20.45,20.45,0,0,1-.27,2c-.15.55-.31.55-1.13.55-1.58,0-2.73,0-3.55-.06s-1.32-.06-1.64-.06c0,0-.4,0-.84,0s-.9,0-1.22,0-.34,0-.34-.17,0-.12.17-.12a3.31,3.31,0,0,0,.63-.08c.42-.08.53-.55.61-1.16.11-.88.11-2.54.11-4.56Z" transform="translate(-32.51 -48.26)"></path>
    <path class="cls-1" d="M376.89,88c0-3.28,0-3.86,0-4.54s-.21-1.05-.9-1.2a3.93,3.93,0,0,0-.71-.06c-.08,0-.17,0-.17-.13s.1-.17.34-.17c.94,0,2.2.06,2.37.06.46,0,1.68-.06,2.65-.06,2.62,0,3.57.88,3.9,1.2a3.64,3.64,0,0,1,1.05,2.5,4.87,4.87,0,0,1-5.17,5,3,3,0,0,1-.44,0c-.1,0-.23,0-.23-.15s.13-.19.57-.19a3.49,3.49,0,0,0,3.63-3.42,4.45,4.45,0,0,0-1.18-3.23,3.65,3.65,0,0,0-2.88-1,2.59,2.59,0,0,0-.9.13c-.12,0-.17.19-.17.4v8.63c0,2,0,3.67.11,4.56.06.61.19,1.07.82,1.16a9.46,9.46,0,0,0,.95.08c.13,0,.17.06.17.13s-.11.17-.34.17c-1.15,0-2.48-.06-2.58-.06s-1.39.06-2,.06c-.23,0-.34,0-.34-.17s0-.12.17-.12a3.31,3.31,0,0,0,.63-.08c.42-.08.53-.55.61-1.16.11-.88.11-2.54.11-4.56Z" transform="translate(-32.51 -48.26)"></path>
    <path class="cls-1" d="M390.37,88c0-3.28,0-3.86,0-4.54s-.21-1.05-.9-1.2a3.93,3.93,0,0,0-.71-.06c-.08,0-.17,0-.17-.13s.11-.17.34-.17c.95,0,2.27.06,2.37.06s1.83-.06,2.48-.06a6.47,6.47,0,0,1,3.84.92A3.68,3.68,0,0,1,399,85.66c0,1.55-.65,3.11-2.54,4.85,1.72,2.2,3.15,4.07,4.37,5.38a4.34,4.34,0,0,0,2.56,1.51,5,5,0,0,0,.82.06c.1,0,.19.06.19.13s-.12.17-.5.17h-1.49a4.27,4.27,0,0,1-2.25-.4c-.9-.48-1.64-1.51-2.83-3.09-.88-1.16-1.87-2.56-2.29-3.11a.34.34,0,0,0-.27-.13l-2.58,0c-.11,0-.15.06-.15.17v.5c0,2,0,3.67.1,4.56.06.61.19,1.07.82,1.16a9.44,9.44,0,0,0,.94.08c.13,0,.17.06.17.13s-.1.17-.34.17c-1.15,0-2.48-.06-2.58-.06s-1.34.06-2,.06c-.23,0-.34,0-.34-.17s0-.12.17-.12a3.33,3.33,0,0,0,.63-.08c.42-.08.53-.55.61-1.16.1-.88.1-2.54.1-4.56Zm1.68,1.83a.27.27,0,0,0,.15.25,5.77,5.77,0,0,0,2.2.34A2.72,2.72,0,0,0,396,90a3.84,3.84,0,0,0,1.28-3.23c0-2.62-1.39-4.2-3.63-4.2a6.29,6.29,0,0,0-1.41.13.25.25,0,0,0-.17.25Z" transform="translate(-32.51 -48.26)"></path>
    <path class="cls-1" d="M412.08,81.59c4.72,0,8.25,3,8.25,7.87A8.24,8.24,0,0,1,412,98c-5.75,0-8.15-4.47-8.15-8.25A8.13,8.13,0,0,1,412.08,81.59Zm.44,15.66c1.89,0,5.79-1.09,5.79-7.2,0-5-3.06-7.75-6.38-7.75-3.51,0-6.13,2.31-6.13,6.91C405.81,94.1,408.75,97.25,412.53,97.25Z" transform="translate(-32.51 -48.26)"></path>
    <path class="cls-1" d="M435.39,92.4c0-1.7-.11-1.93-.95-2.16a3.84,3.84,0,0,0-.71-.06c-.08,0-.17,0-.17-.13s.1-.17.34-.17c.94,0,2.27.06,2.37.06s1.43-.06,2.06-.06c.23,0,.34,0,.34.17s-.08.13-.17.13a3,3,0,0,0-.53.06c-.57.1-.73.46-.78,1.2s0,1.3,0,2.18V96c0,.94,0,1-.27,1.13a11.43,11.43,0,0,1-11.36-1.3,8.2,8.2,0,0,1-2.5-6,8,8,0,0,1,3.51-6.91,10.31,10.31,0,0,1,5.59-1.32,18,18,0,0,1,3.21.36,10.56,10.56,0,0,0,1.7.21c.21,0,.25.11.25.19a26.61,26.61,0,0,0-.15,3c0,.34,0,.44-.19.44s-.12-.13-.15-.31a3.23,3.23,0,0,0-.44-1.39c-.52-.8-2.22-1.7-4.93-1.7a6,6,0,0,0-6.57,6.72,8.56,8.56,0,0,0,2.23,5.82,7.64,7.64,0,0,0,5.5,2.25,5.75,5.75,0,0,0,2.39-.44.77.77,0,0,0,.42-.74Z" transform="translate(-32.51 -48.26)"></path>
    <path class="cls-1" d="M443.52,88c0-3.28,0-3.86,0-4.54s-.21-1.05-.9-1.2a3.93,3.93,0,0,0-.71-.06c-.08,0-.17,0-.17-.13s.1-.17.34-.17c.94,0,2.27.06,2.37.06s1.83-.06,2.48-.06a6.47,6.47,0,0,1,3.84.92,3.68,3.68,0,0,1,1.45,2.86c0,1.55-.65,3.11-2.54,4.85,1.72,2.2,3.15,4.07,4.37,5.38a4.35,4.35,0,0,0,2.56,1.51,5,5,0,0,0,.82.06c.1,0,.19.06.19.13s-.13.17-.5.17h-1.49a4.27,4.27,0,0,1-2.25-.4c-.9-.48-1.64-1.51-2.83-3.09-.88-1.16-1.87-2.56-2.29-3.11a.34.34,0,0,0-.27-.13l-2.58,0c-.11,0-.15.06-.15.17v.5c0,2,0,3.67.1,4.56.06.61.19,1.07.82,1.16a9.42,9.42,0,0,0,.94.08c.13,0,.17.06.17.13s-.1.17-.34.17c-1.16,0-2.48-.06-2.58-.06s-1.34.06-2,.06c-.23,0-.34,0-.34-.17s0-.12.17-.12a3.31,3.31,0,0,0,.63-.08c.42-.08.53-.55.61-1.16.11-.88.11-2.54.11-4.56Zm1.68,1.83a.27.27,0,0,0,.15.25,5.78,5.78,0,0,0,2.21.34,2.72,2.72,0,0,0,1.57-.4,3.84,3.84,0,0,0,1.28-3.23c0-2.62-1.39-4.2-3.63-4.2a6.28,6.28,0,0,0-1.41.13.25.25,0,0,0-.17.25Z" transform="translate(-32.51 -48.26)"></path>
    <path class="cls-1" d="M462.38,82.41c.25-.69.34-.82.46-.82s.21.1.46.76,3.61,9.47,4.89,12.66c.76,1.87,1.36,2.21,1.81,2.33a2.7,2.7,0,0,0,.84.13c.13,0,.21,0,.21.13s-.19.17-.42.17-1.85,0-3.3,0c-.4,0-.63,0-.63-.15s.06-.13.15-.15.25-.23.13-.57l-2-5.17a.18.18,0,0,0-.19-.13h-4.51a.22.22,0,0,0-.21.17l-1.26,3.72a4.42,4.42,0,0,0-.29,1.41c0,.42.44.61.8.61h.21c.15,0,.21,0,.21.13s-.13.17-.32.17c-.5,0-1.41-.06-1.64-.06s-1.39.06-2.37.06c-.27,0-.4,0-.4-.17s.08-.12.19-.12.44,0,.61,0c1-.12,1.39-.92,1.76-2Zm2.18,8.4c.1,0,.1-.06.08-.15l-2-5.67q-.16-.47-.32,0l-1.85,5.67c0,.1,0,.15.06.15Z" transform="translate(-32.51 -48.26)"></path>
    <path class="cls-1" d="M489.68,95.07c.08.76.23,1.93,1.13,2.23a4.56,4.56,0,0,0,1.36.19c.11,0,.17,0,.17.1s-.19.19-.44.19c-.46,0-2.73,0-3.51-.08-.48,0-.59-.11-.59-.21s0-.13.15-.15.13-.38.08-.76l-1-10.9H487L481.83,96.6c-.44.92-.5,1.11-.69,1.11s-.25-.21-.65-1c-.55-1-2.35-4.66-2.46-4.87-.19-.38-2.54-5.42-2.77-6h-.08l-.84,9.74c0,.34,0,.71,0,1.07a.67.67,0,0,0,.55.65,3.88,3.88,0,0,0,.8.11c.08,0,.17,0,.17.1s-.13.19-.38.19c-.78,0-1.78-.06-2-.06s-1.2.06-1.76.06c-.21,0-.36,0-.36-.19s.11-.1.21-.1a2.68,2.68,0,0,0,.63-.06c.69-.13.76-.94.84-1.74L474.56,82c0-.23.11-.38.23-.38s.21.08.32.31l6.42,13.21,6.17-13.19c.08-.19.17-.34.32-.34s.21.17.25.57Z" transform="translate(-32.51 -48.26)"></path>
    <path class="cls-1" d="M494.76,97.48c-.29-.15-.32-.23-.32-.8,0-1,.08-1.89.11-2.23s.06-.34.17-.34.15.06.15.23a3.67,3.67,0,0,0,.06.78A2.86,2.86,0,0,0,498,97.27a2.8,2.8,0,0,0,3-2.79c0-1.45-.61-2.29-2.42-3.78l-.94-.78c-2.23-1.83-2.73-3.13-2.73-4.56,0-2.25,1.68-3.78,4.35-3.78a8.19,8.19,0,0,1,2,.21,3.45,3.45,0,0,0,.74.11c.17,0,.21,0,.21.15s-.08.8-.08,2.23c0,.34,0,.48-.15.48s-.15-.11-.17-.27a3.7,3.7,0,0,0-.27-1c-.13-.23-.69-1.11-2.62-1.11a2.39,2.39,0,0,0-2.58,2.44c0,1.2.55,2,2.56,3.53l.59.46c2.48,2,3.07,3.25,3.07,4.93a4.35,4.35,0,0,1-1.79,3.48,5.51,5.51,0,0,1-3.17.88A6.37,6.37,0,0,1,494.76,97.48Z" transform="translate(-32.51 -48.26)"></path>
    <path class="cls-1" d="M151.38,81.09c-.25,0-.38.1-.45.68a6.9,6.9,0,0,1-1.43,3.29c-1.43,1.54-3.72,1.54-6.37,1.54-4.36,0-5.67-.43-6.56-1.21-1.17-1-1.17-4.55-1.17-11.6V64.38c0-8.16,0-9.22.11-10.94s.47-2.88,2.09-3.18a14.64,14.64,0,0,1,2.11-.16.73.73,0,0,0,.82-.75c0-.16-.08-.34-1-.34-1.18,0-2.91,0-4.43.09h-.05c-1.19,0-2.23.06-2.78.06s-1.65,0-2.72-.06c-1.49,0-3.18-.1-4.6-.1-1,0-1,.17-1,.34a.71.71,0,0,0,.76.75,8.09,8.09,0,0,1,1.8.16c1.9.41,2.3,1.39,2.41,3.18s.1,2.78.1,10.93v9.41c0,4.91,0,8.82-.26,11.07-.21,1.54-.49,2.83-1.67,3.07a9,9,0,0,1-2,.22c-.71,0-.71.53-.71.62s0,.39.92.39c.52,0,1.13,0,1.71,0h0c.65,0,1.33-.05,2-.05,1.28-.06,2.47-.06,3-.06,2,0,3.9,0,6.53.16l1.69,0h0c2,.05,4.35.12,7.33.12S151,89,151.27,88a41.77,41.77,0,0,0,.8-6.11c0-.73-.5-.77-.69-.77" transform="translate(-32.51 -48.26)"></path>
    <path class="cls-1" d="M171.9,88.18a23.14,23.14,0,0,1-2.74-.21c-1.65-.22-2.09-1.21-2.26-2.74-.22-2.31-.22-6.17-.22-11.43V64.38c0-8.16,0-9.37.11-11.09s.48-2.88,2.1-3.18a9.2,9.2,0,0,1,1.63-.16c.66,0,.71-.44.71-.65s-.33-.28-1-.28c-1.12,0-2.59,0-3.89.09-1,0-2,.07-2.63.07s-1.83,0-3-.07h0c-1.39,0-2.83-.09-3.92-.09-.77,0-1.14.09-1.14.28s.05.65.72.65a7.56,7.56,0,0,1,2,.22c1.24.28,1.81,1.21,1.93,3.12.11,1.72.11,2.93.11,11.09v9.41c0,5.26,0,9.12-.27,11.38-.16,1.55-.49,2.56-1.67,2.8a9,9,0,0,1-2,.22c-.72,0-.72.5-.72.58s0,.39.93.39c1.21,0,2.79-.05,4.19-.1h0c1,0,2-.06,2.51-.06s1.4,0,2.46.05c1.66,0,3.73.11,5.87.11.26,0,.87,0,.87-.39s-.17-.58-.72-.58" transform="translate(-32.51 -48.26)"></path>
    <path class="cls-1" d="M197.74,85.82a7.13,7.13,0,0,1-4.23,1.36,9.76,9.76,0,0,1-4-.65c-1.78-.73-2-1.65-2-5.27V68.6c0-.43.25-.52.46-.52.81,0,1.35,0,2.31.06a7.79,7.79,0,0,1,4.51,1.31c4.73,3.31,5.24,8.63,5.24,10.76a6.67,6.67,0,0,1-2.39,5.62M187.6,52.08c0-.57.09-.91.59-1a8.67,8.67,0,0,1,1.8-.11,6.11,6.11,0,0,1,5.19,2.86,10.31,10.31,0,0,1,1.64,5.57c0,2.59-.78,4.59-2.25,5.78-1,.87-2.29,1-3.94,1a13.31,13.31,0,0,1-2.54-.16c-.23-.06-.49-.19-.49-.73Zm9.19,14.3-.25-.08.2-.16c3.24-2.59,5.39-5.16,5.39-9.25,0-1.85-.81-7.87-11.24-7.87-.82,0-1.71,0-2.66.07-1.14,0-2.42.09-3.87.09-.41,0-1.13,0-2.05-.05h0c-1.46,0-3.45-.11-5.2-.11-1,0-1,.17-1,.34a.69.69,0,0,0,.77.72,11.35,11.35,0,0,1,2.12.16c1.91.41,2.31,1.39,2.4,3.18s.11,2.8.11,11v9.41c0,4.91,0,8.79-.27,11-.21,1.54-.49,2.83-1.66,3.07a9,9,0,0,1-2,.22.62.62,0,0,0-.71.65c0,.1,0,.39.92.39.53,0,1.13,0,1.72,0h0c.65,0,1.33-.05,2-.05,1.28-.06,2.47-.06,3-.06.75,0,2.32.05,4,.16l2,.09h.05c.7,0,1.36.07,1.72.07,4.48,0,8.19-1.26,10.73-3.64a10.69,10.69,0,0,0,3.4-7.87c0-3.92-2.53-9-9.63-11.41" transform="translate(-32.51 -48.26)"></path>
    <path class="cls-1" d="M234.34,81.31a.79.79,0,0,0-.85.68c-.38,2.27-1.08,3.41-2.49,4.06a11.63,11.63,0,0,1-4.68.66c-5.41,0-6.45-.74-6.56-4.63,0-1.11,0-3.87,0-6.08v0c0-.88,0-1.66,0-2.18V69.56c0-.2,0-.68.46-.68,1.2,0,6.56.05,7.61.16,1.8.2,2.79.89,3.12,2.19a8.89,8.89,0,0,1,.18,1.49c0,.16,0,.32,0,.46s.09.35.34.35.34-.31.34-.87c0-.21,0-1,.1-1.75v-.06c0-.65.09-1.31.11-1.78.14-1.81.29-2.82.37-3.36a4.89,4.89,0,0,0,.06-.54c0-.26-.12-.28-.23-.28s-.36.2-.65.53l-.1.11c-.51.57-1.33.74-2.66.85-1.07.09-5.83.11-8.57.11-.52,0-.52-.46-.52-.73V52.24c0-.17,0-.67.52-.67,1,0,6.41.1,7.35.21,2.83.34,3.33,1.08,3.7,2a5.92,5.92,0,0,1,.33,2,.54.54,0,0,0,.6.61c.21,0,.32-.13.4-.47s.13-1.49.19-2.37c0-.51.06-.94.08-1.15a22.56,22.56,0,0,1,.36-3,3,3,0,0,0,.07-.48c0-.34-.1-.34-.17-.34a1.71,1.71,0,0,0-.49.12l-.34.1a23.09,23.09,0,0,1-2.32.32c-.92,0-9.66.05-13.38.05-.7,0-1.79,0-3.06-.09h-.32l-2.07,0-2.25,0c-1,0-1,.17-1,.34s-.2.6.51.6a11.37,11.37,0,0,1,2.12.16c1.9.41,2.3,1.39,2.4,3.18a101.08,101.08,0,0,1,.37,11.08v9.41c0,4.91,0,8.76-.27,11-.21,1.54-.48,2.83-1.66,3.07a9,9,0,0,1-2,.22.64.64,0,0,0-.71.68c0,.1,0,.39.93.39.51,0,1.1,0,1.71,0s1.33-.06,2-.06c1.28-.06,2.47-.06,3-.06,1.69,0,3.44.06,5.57.16l1.39,0c2,.05,4.6.12,7.86.12,2,0,2.4,0,2.75-1.28a41.66,41.66,0,0,0,.69-5.89c0-.64,0-.82-.29-.82" transform="translate(-32.51 -48.26)"></path>
    <path class="cls-1" d="M257.57,69.31c-1,.7-1.67.94-3.88.94a14,14,0,0,1-4.1-.55c-.45-.19-.58-.44-.58-1.1V52.34a.78.78,0,0,1,.59-.89,11.38,11.38,0,0,1,2.87-.22c3.09,0,8.33,2.09,8.33,9.92,0,5-2,7.26-3.22,8.14M279,88.11a8.71,8.71,0,0,1-1.52-.16h-.07c-.83-.17-3-.61-6-3.66-2.75-2.89-5.86-6.45-9.79-11.43l-.35-.44-1.47-1.85-.09-.11.11-.09c4.91-4,7-7.54,7-11.87a9.08,9.08,0,0,0-3.57-7.21c-2.93-2-6.58-2.27-9.76-2.27-.8,0-2.13,0-3.55.08h-.08c-1.47,0-3,.08-3.91.08-.44,0-1.23,0-2.15-.05-1.53,0-3.42-.11-5.18-.11-1,0-1,.17-1,.34s.06.56.77.56a11.37,11.37,0,0,1,2.12.16c1.9.41,2.3,1.39,2.41,3.18s.11,3,.11,11.12v9.41c0,4.91,0,8.76-.27,11-.21,1.54-.48,2.83-1.66,3.07a9,9,0,0,1-2,.22.64.64,0,0,0-.71.68c0,.1,0,.39.93.39,1.26,0,3-.06,4.34-.1.91,0,1.76-.06,2.18-.06l1.74,0c1.62,0,4.07.12,6.12.12.93,0,.93-.29.93-.39,0-.25,0-.61-.5-.61a25.38,25.38,0,0,1-2.64-.21c-1.77-.24-2.05-1.59-2.21-3.07-.27-2.25-.27-6.19-.27-11.13V73a.51.51,0,0,1,.57-.57l4.65.1a1.26,1.26,0,0,1,1.07.42c.4.46,1.39,1.87,2.53,3.49v0c.86,1.23,1.84,2.62,2.76,3.88,3.09,4.26,5.07,6.63,7.28,7.82,1.41.76,2.78,1,5.65,1h5.08c.81,0,.87-.19.87-.39s-.17-.65-.5-.65" transform="translate(-32.51 -48.26)"></path>
    <path class="cls-1" d="M346.85,49c-.48,0-1.51,0-2.6.07h-.06c-1.2,0-2.44.08-3.06.08s-1.54,0-2.36-.08S337,49,336.1,49c-.71,0-.77.14-.77.34s.47.31.85.39a1.42,1.42,0,0,1,1.23,1.48,7.2,7.2,0,0,1-.76,2.84c-.38.83-2.26,4.21-4.08,7.47s-3.67,6.59-3.94,7.23l-.11.27-.14-.25-1.1-1.9-.22-.39c-2.51-4.34-7.18-12.43-7.77-13.7a4.83,4.83,0,0,1-.66-1.88,1.11,1.11,0,0,1,.87-1.1l.26-.07c.6-.16.8-.22.8-.38s0-.34-.65-.34c-1.37,0-2.68.05-3.75.1h0l-12.79,0h-.22l-1,0H281c-1.74,0-3.8-.1-5.37-.27a4.94,4.94,0,0,1-1.76-.47,1.54,1.54,0,0,0-.52-.17c-.21,0-.35.25-.5.91s-1.12,5.3-1.12,6.12c0,.66.15.72.34.72s.81,0,.93-.53a6.34,6.34,0,0,1,.93-1.92c.87-1.26,2.27-1.51,5.3-1.61l7.64-.22V73.79c0,4.91,0,8.71-.27,11-.14,1.45-.45,2.82-1.67,3.07a9,9,0,0,1-2,.22.67.67,0,0,0-.71.73c0,.1,0,.39.92.39,1.2,0,2.79-.05,4.19-.1h0c1.06,0,2-.06,2.52-.06s1.43,0,2.51.06h0c1.66,0,3.72.11,5.86.11.26,0,.87,0,.87-.39s0-.73-.71-.73a23.24,23.24,0,0,1-2.75-.21c-1.76-.24-2.06-1.62-2.21-3-.26-2.3-.26-6.1-.26-11V51.72l6.62.16c5.41.12,6.36,2,6.45,3.13l.06.58c.06.85.44.94.71.94s.27-.06.34-.72.1-3.94.12-4.4c0-1,.54-1.24,1-1.24a4.24,4.24,0,0,1,2.11,1,16.75,16.75,0,0,1,2.71,3.17c1.79,2.67,9,14.49,9.42,15.43a11.52,11.52,0,0,1,1.24,5.67v4.38c0,.85,0,2.72-.16,5-.13,1.8-.74,2.87-1.77,3.07a8.75,8.75,0,0,1-1.9.22.63.63,0,0,0-.72.67c0,.2.08.39,1,.39s2.59,0,3.92-.09h0c1,0,2.13-.07,2.74-.07s1.43,0,2.44.05h.06c1.62,0,3.63.11,5.68.11.45,0,1-.07,1-.39a.63.63,0,0,0-.71-.67,23,23,0,0,1-2.7-.21c-1.88-.25-2.22-1.77-2.31-3.07-.17-2.25-.17-4.11-.17-5V75.45a12.9,12.9,0,0,1,.81-5.4c.93-2.23,8.44-14.87,10.24-17a8.09,8.09,0,0,1,2.94-2.66,5.93,5.93,0,0,1,2.42-.65c.26,0,.87,0,.87-.39,0-.19-.28-.28-.82-.28" transform="translate(-32.51 -48.26)"></path>
    <path class="cls-1" d="M129.4,105.73c0,2.67.53,3.8,1.44,4.54a3.41,3.41,0,0,0,2.31.76,3.61,3.61,0,0,0,2.54-1c1-1,1.07-2.67,1.07-4.57v-2.31c0-2.8,0-3.32,0-3.91s-.18-.92-.79-1.05a3.56,3.56,0,0,0-.66-.06c-.2,0-.31,0-.31-.17s.13-.17.39-.17c.94,0,2.1.06,2.12.06.22,0,1.38-.06,2.1-.06.26,0,.39,0,.39.17s-.11.17-.33.17a2.77,2.77,0,0,0-.53.06c-.5.09-.65.41-.68,1.05s0,1.11,0,3.91v2c0,2-.2,4.22-1.75,5.55a5.5,5.5,0,0,1-3.84,1.33,5.93,5.93,0,0,1-4.09-1.27c-.94-.85-1.64-2.21-1.64-4.89v-2.69c0-2.8,0-3.32,0-3.91s-.18-.92-.79-1.05a3.78,3.78,0,0,0-.72-.06c-.2,0-.31,0-.31-.17s.13-.17.41-.17c1,0,2.14.06,2.69.06s1.6-.06,2.27-.06c.28,0,.41,0,.41.17s-.11.17-.3.17a2.77,2.77,0,0,0-.53.06c-.5.09-.65.41-.68,1.05s0,1.11,0,3.91Z" transform="translate(-32.51 -48.26)"></path>
    <path class="cls-1" d="M152.16,98.12c0-.37.06-.63.24-.63s.37.24.68.57,3,3.25,5.72,5.92c1.25,1.25,3.84,4,4.15,4.3l-.18-8.37c0-1.12-.18-1.48-.63-1.66a3,3,0,0,0-1-.11c-.22,0-.29-.06-.29-.17s.2-.17.48-.17c1,0,1.84.06,2.23.06.2,0,.9-.06,1.81-.06.24,0,.42,0,.42.17s-.11.17-.33.17a2,2,0,0,0-.55.06c-.52.15-.66.53-.68,1.57-.07,3.89-.13,7.75-.2,11.64,0,.41-.07.57-.24.57s-.42-.2-.63-.41c-1.16-1.11-3.52-3.52-5.44-5.42s-4.11-4.35-4.44-4.7l.2,7.8c0,1.44.28,1.92.65,2a2.94,2.94,0,0,0,1,.13c.2,0,.31,0,.31.15s-.17.18-.42.18c-1.2,0-1.94-.06-2.29-.06-.17,0-1,.06-2,.06-.24,0-.41,0-.41-.18s.11-.15.3-.15a3.28,3.28,0,0,0,.83-.09c.48-.15.55-.68.57-2.29C152.05,105.13,152.13,100.57,152.16,98.12Z" transform="translate(-32.51 -48.26)"></path>
    <path class="cls-1" d="M178.66,103.15c0-2.8,0-3.32,0-3.91s-.22-.94-.63-1a2.61,2.61,0,0,0-.66-.07c-.18,0-.3,0-.3-.18s.15-.15.44-.15c.7,0,1.86.06,2.4.06s1.55-.06,2.25-.06c.24,0,.39,0,.39.15s-.11.18-.3.18a3.11,3.11,0,0,0-.55.06c-.5.09-.65.41-.68,1.05s0,1.11,0,3.91v3.25c0,1.79,0,3.25.07,4,.06.5.18.83.74.9a7.75,7.75,0,0,0,.94.07c.2,0,.3.06.3.15s-.15.18-.35.18c-1.22,0-2.38-.06-2.88-.06s-1.59.06-2.32.06c-.24,0-.37-.06-.37-.18s.07-.15.3-.15a3,3,0,0,0,.66-.07c.37-.07.48-.39.53-.92.09-.77.09-2.23.09-4Z" transform="translate(-32.51 -48.26)"></path>
    <path class="cls-1" d="M195.18,99.61c-.42-1-.74-1.22-1.4-1.4a2.84,2.84,0,0,0-.72-.07c-.17,0-.22-.06-.22-.17s.2-.17.48-.17c1,0,2,.06,2.67.06.46,0,1.35-.06,2.27-.06.22,0,.42,0,.42.17s-.11.17-.28.17a1.32,1.32,0,0,0-.72.13.44.44,0,0,0-.18.39,5.49,5.49,0,0,0,.42,1.42c1,2.66,2.25,5.92,3.21,8.46.79-2,3.23-8.06,3.67-9.28a2.28,2.28,0,0,0,.17-.68.35.35,0,0,0-.24-.35,2.45,2.45,0,0,0-.74-.09c-.17,0-.31,0-.31-.15s.17-.18.52-.18c.92,0,1.7.06,1.94.06s1.18-.06,1.73-.06c.24,0,.39,0,.39.17s-.11.17-.3.17a1.6,1.6,0,0,0-.9.22c-.24.17-.52.48-1,1.66-.72,1.73-1.22,2.73-2.21,5-1.18,2.69-2,4.7-2.45,5.62s-.59,1.36-.85,1.36-.35-.26-.7-1.13Z" transform="translate(-32.51 -48.26)"></path>
    <path class="cls-1" d="M220.12,103.15c0-2.8,0-3.32,0-3.91s-.18-.92-.79-1.05a3.79,3.79,0,0,0-.72-.06c-.2,0-.31,0-.31-.17s.13-.17.41-.17c.85,0,1.7.06,2.66.06.59,0,4.81,0,5.16,0a7.34,7.34,0,0,0,.79-.11,1.73,1.73,0,0,1,.3-.07c.09,0,.11.07.11.17a11.85,11.85,0,0,0-.15,1.2c0,.18-.06,1-.09,1.22s-.06.2-.18.2-.17-.11-.17-.33a1.83,1.83,0,0,0-.11-.59c-.13-.33-.31-.55-1.24-.66-.31,0-2.8-.07-3.17-.07-.09,0-.13.06-.13.18v4.67c0,.13,0,.2.13.2.41,0,3.07,0,3.5,0a1.29,1.29,0,0,0,.89-.28c.13-.15.2-.24.29-.24s.13,0,.13.15-.07.41-.15,1.35c0,.37-.07,1.11-.07,1.24s0,.35-.17.35-.17-.2-.17-.3a3.33,3.33,0,0,0-.07-.53c-.09-.37-.35-.65-1-.72-.35,0-2.72-.06-3.17-.06-.09,0-.11.07-.11.18v1.46c0,.63,0,2.32,0,2.86,0,1.27.88,1.55,2.76,1.55a4.68,4.68,0,0,0,1.73-.22c.48-.22.7-.61.83-1.36,0-.2.07-.28.2-.28s.15.15.15.33a14.5,14.5,0,0,1-.24,2c-.13.48-.3.48-1,.48-1.64,0-3.81-.11-5.65-.11-.74,0-1.49.06-2.32.06-.24,0-.37-.06-.37-.18s.07-.15.3-.15a3,3,0,0,0,.66-.07c.37-.07.46-.48.53-1,.09-.77.09-2.23.09-3.93Z" transform="translate(-32.51 -48.26)"></path>
    <path class="cls-1" d="M242.42,103.15c0-2.8,0-3.32,0-3.91s-.18-.92-.79-1.05a3.79,3.79,0,0,0-.72-.06c-.2,0-.31,0-.31-.17s.13-.17.41-.17c1,0,2.14.06,2.53.06.63,0,2-.06,2.6-.06a5.9,5.9,0,0,1,3.39.79,3.2,3.2,0,0,1,1.25,2.53c0,1.36-.55,2.6-2.42,4.11,1.64,2.07,2.91,3.73,4,4.87a3.65,3.65,0,0,0,2,1.25,2.9,2.9,0,0,0,.52.06c.15,0,.22.06.22.15s-.13.18-.35.18H253a3.75,3.75,0,0,1-2-.35,8.89,8.89,0,0,1-2.53-2.71c-.74-1-1.59-2.27-1.83-2.54a.38.38,0,0,0-.33-.13l-1.55,0c-.09,0-.15,0-.15.15v.26c0,1.72,0,3.17.09,3.95.06.53.17.94.72,1a8.45,8.45,0,0,0,.9.07c.15,0,.22.06.22.15s-.13.18-.37.18c-1.07,0-2.43-.06-2.71-.06s-1.51.06-2.25.06c-.24,0-.37-.06-.37-.18s.07-.15.3-.15a3,3,0,0,0,.66-.07c.37-.07.46-.48.53-1,.09-.77.09-2.23.09-3.93Zm2.18,1.46c0,.2,0,.28.17.33a4.87,4.87,0,0,0,1.4.18,1.85,1.85,0,0,0,1.31-.31,3.25,3.25,0,0,0,1.09-2.77c0-2.62-1.73-3.37-2.82-3.37a4,4,0,0,0-1,.07c-.13,0-.17.11-.17.26Z" transform="translate(-32.51 -48.26)"></path>
    <path class="cls-1" d="M265.59,111.53c-.3-.13-.35-.22-.35-.63,0-1,.07-2.12.09-2.42s.07-.48.22-.48.18.17.18.31a3.89,3.89,0,0,0,.17.94,2.54,2.54,0,0,0,2.64,1.86A2.24,2.24,0,0,0,271,109c0-.9-.28-1.75-1.81-3l-.85-.66c-2-1.59-2.73-2.88-2.73-4.37,0-2,1.7-3.49,4.26-3.49a10,10,0,0,1,1.7.15c.31.06.55.11.76.17s.26.09.26.22-.07.77-.07,2.21c0,.41-.06.55-.2.55s-.18-.11-.18-.33a2.23,2.23,0,0,0-.48-1.22,2.34,2.34,0,0,0-2-.9,1.94,1.94,0,0,0-2.19,1.9c0,.85.42,1.49,2,2.66l.52.39c2.23,1.68,3,3,3,4.7a3.72,3.72,0,0,1-1.73,3.21,5.33,5.33,0,0,1-2.93.76A6.39,6.39,0,0,1,265.59,111.53Z" transform="translate(-32.51 -48.26)"></path>
    <path class="cls-1" d="M286.82,103.15c0-2.8,0-3.32,0-3.91s-.22-.94-.63-1a2.62,2.62,0,0,0-.66-.07c-.18,0-.3,0-.3-.18s.15-.15.44-.15c.7,0,1.86.06,2.4.06s1.55-.06,2.25-.06c.24,0,.39,0,.39.15s-.11.18-.3.18a3.12,3.12,0,0,0-.55.06c-.5.09-.65.41-.68,1.05s0,1.11,0,3.91v3.25c0,1.79,0,3.25.07,4,.06.5.18.83.74.9a7.76,7.76,0,0,0,.94.07c.2,0,.3.06.3.15s-.15.18-.35.18c-1.22,0-2.38-.06-2.88-.06s-1.59.06-2.32.06c-.24,0-.37-.06-.37-.18s.07-.15.3-.15a3,3,0,0,0,.66-.07c.37-.07.48-.39.53-.92.09-.77.09-2.23.09-4Z" transform="translate(-32.51 -48.26)"></path>
    <path class="cls-1" d="M309.56,106.4c0,1.7,0,3.15.09,3.95.06.52.17.92.72,1a7.76,7.76,0,0,0,.94.07c.2,0,.3.06.3.15s-.15.18-.35.18c-1.22,0-2.38-.06-2.9-.06s-1.59.06-2.32.06c-.24,0-.37-.06-.37-.18s.07-.15.3-.15a3,3,0,0,0,.66-.07c.37-.07.48-.48.53-1,.09-.77.09-2.23.09-3.93V98.84l-2.75.07c-1.07,0-1.51.13-1.79.53a2.19,2.19,0,0,0-.31.65c0,.15-.09.22-.2.22s-.17-.09-.17-.3.35-2,.39-2.12.11-.35.22-.35a4.27,4.27,0,0,0,.79.22c.53.06,1.24.09,1.84.09h7.3a8.82,8.82,0,0,0,1.27-.09,4.42,4.42,0,0,1,.5-.09c.13,0,.15.11.15.39s-.06,1.66-.06,2.14c0,.18-.06.29-.17.29s-.18-.09-.2-.37c0-.06,0-.15,0-.2,0-.48-.53-1-2.18-1l-2.32-.06Z" transform="translate(-32.51 -48.26)"></path>
    <path class="cls-1" d="M330.33,107a3.91,3.91,0,0,0-.42-1.94c-.13-.3-2.6-4.35-3.25-5.31a4.51,4.51,0,0,0-1.27-1.35,1.88,1.88,0,0,0-.77-.24c-.15,0-.28,0-.28-.17s.13-.17.35-.17,1.72.06,2.32.06c.39,0,1.14-.06,2-.06q.28,0,.28.17c0,.11-.13.13-.41.2a.33.33,0,0,0-.26.33,1.7,1.7,0,0,0,.22.63c.26.55,2.84,5,3.14,5.51.18-.44,2.51-4.5,2.77-5.07a2.4,2.4,0,0,0,.26-1,.44.44,0,0,0-.39-.46c-.17,0-.33-.07-.33-.18s.09-.17.31-.17c.61,0,1.2.06,1.73.06s1.62-.06,2-.06.33,0,.33.15-.15.18-.35.18a2,2,0,0,0-.81.22,2.75,2.75,0,0,0-1,.9,58.82,58.82,0,0,0-3.52,5.86,4.42,4.42,0,0,0-.28,1.84v1.51c0,.29,0,1.07.06,1.84,0,.53.2.94.76,1a7.76,7.76,0,0,0,.92.07c.2,0,.3.06.3.15s-.15.18-.39.18c-1.16,0-2.32-.06-2.82-.06s-1.62.06-2.31.06c-.26,0-.41,0-.41-.18s.09-.15.3-.15a3,3,0,0,0,.65-.07c.37-.07.53-.48.57-1,.06-.77.06-1.55.06-1.84Z" transform="translate(-32.51 -48.26)"></path>
    <path class="cls-1" d="M108.6,67.3H87.3l-.78,3.46c1.29.11,4.12.56,5.7,2.47a5.56,5.56,0,0,1,1,4.83L90.06,92.77c-.76,3.36-1.55,5.14-2.92,6.57a6.73,6.73,0,0,1-5,2c-4.18,0-6.6-2.12-6.8-6a14.73,14.73,0,0,1,.33-3.54L81,67.3H59.06l-.78,3.46c1.28.1,4.08.55,5.66,2.43a5.48,5.48,0,0,1,1,4.67l-.65,3.25H48.42l6.93-32.59H33.65L32.87,52l1.15.12a7.27,7.27,0,0,1,4.85,2.7,5.83,5.83,0,0,1,.65,4.64l-7,32.95H70L70,93a18.64,18.64,0,0,0,0,3.4l-.61,0h-.72c-1.78,0-4.44.77-5.55,2.23s-.75,3.76,0,5.44a13.86,13.86,0,0,0,9.24,7.74A33,33,0,0,0,80.74,113c7.25,0,12.3-1.76,15.89-5.53,2.83-3,4.8-7.15,6-12.75Z" transform="translate(-32.51 -48.26)"></path>
</svg>